<svg width="31" height="31" viewBox="0 0 31 31" fill="none" xmlns="http://www.w3.org/2000/svg">
<g clip-path="url(#clip0_1060_43)">
<path fill-rule="evenodd" clip-rule="evenodd" d="M5.53737 28.3047L2.20549 24.154C1.40384 23.1553 0.96875 21.9273 0.96875 20.6633V5.63327C0.96875 3.74 2.48347 2.169 4.43757 2.03559L19.8905 0.980552C21.0131 0.903904 22.129 1.20231 23.0512 1.82581L28.4805 5.4966C29.4524 6.15368 30.0312 7.22783 30.0312 8.37412V25.4618C30.0312 27.3146 28.5419 28.8487 26.6286 28.9665L9.4776 30.0222C7.95085 30.1162 6.47512 29.4729 5.53737 28.3047Z" fill="white"/>
<path d="M10.8966 13.1544V12.9576C10.8966 12.4588 11.2961 12.0451 11.811 12.0108L15.5614 11.7604L20.7478 19.3978V12.6947L19.4128 12.5167V12.4232C19.4128 11.9186 19.8215 11.5022 20.3429 11.4754L23.7553 11.3006V11.7917C23.7553 12.0222 23.5839 12.2194 23.349 12.2592L22.5278 12.3981V23.2536L21.4972 23.608C20.6362 23.9041 19.6777 23.5872 19.1848 22.8434L14.1497 15.2454V22.4973L15.6995 22.7939L15.6779 22.9376C15.6103 23.3879 15.2215 23.7284 14.7512 23.7494L10.8966 23.9209C10.8457 23.4367 11.2086 23.0035 11.7092 22.9509L12.2163 22.8977V13.2285L10.8966 13.1544Z" fill="black"/>
<path fill-rule="evenodd" clip-rule="evenodd" d="M20.0289 2.87409L4.57592 3.92912C3.6503 3.99232 2.9328 4.73647 2.9328 5.63329V20.6633C2.9328 21.506 3.22286 22.3247 3.75729 22.9904L7.08918 27.1412C7.62788 27.8123 8.47564 28.1818 9.35271 28.1278L26.5037 27.0721C27.3828 27.018 28.0671 26.3131 28.0671 25.4618V8.37414C28.0671 7.84746 27.8011 7.35394 27.3546 7.05204L21.9253 3.38124C21.3719 3.00714 20.7024 2.8281 20.0289 2.87409ZM5.3422 5.86773C5.12728 5.70861 5.22956 5.37711 5.49956 5.35774L20.1328 4.30815C20.599 4.27471 21.0623 4.4031 21.4394 4.67024L24.3754 6.75039C24.4869 6.82936 24.4346 6.99985 24.2966 7.00735L8.80006 7.85015C8.33109 7.87565 7.86818 7.73788 7.49529 7.46181L5.3422 5.86773ZM8.07321 10.4923C8.07321 9.98883 8.47993 9.57298 9.00001 9.54465L25.3843 8.65236C25.8911 8.62476 26.3178 9.01456 26.3178 9.50521V24.3014C26.3178 24.8039 25.9126 25.2193 25.3935 25.2488L9.11298 26.1752C8.54889 26.2073 8.07321 25.7738 8.07321 25.2277V10.4923Z" fill="black"/>
</g>
<path d="M10 11H25V24H10V11Z" fill="white"/>
<path d="M17.328 23.4C16.4107 23.4 15.584 23.2133 14.848 22.84C14.1227 22.456 13.5467 21.8693 13.12 21.08C12.6933 20.2907 12.48 19.2933 12.48 18.088C12.48 17.5013 12.5813 16.8987 12.784 16.28C12.9867 15.6613 13.28 15.064 13.664 14.488C14.0587 13.9013 14.544 13.3787 15.12 12.92C15.7067 12.4507 16.384 12.0827 17.152 11.816C17.92 11.5387 18.7733 11.4 19.712 11.4C20.288 11.4 20.8053 11.48 21.264 11.64C21.7333 11.8 22.1013 12.04 22.368 12.36C22.6347 12.6693 22.768 13.0587 22.768 13.528C22.768 13.9867 22.6613 14.3707 22.448 14.68C22.2453 14.9893 21.9733 15.224 21.632 15.384C21.3013 15.5333 20.9387 15.608 20.544 15.608C20.0747 15.608 19.616 15.4907 19.168 15.256C18.72 15.0213 18.3573 14.6747 18.08 14.216C17.7067 14.3973 17.3547 14.7067 17.024 15.144C16.704 15.5707 16.448 16.072 16.256 16.648C16.064 17.224 15.968 17.8213 15.968 18.44C15.968 18.8773 16.0213 19.288 16.128 19.672C16.2453 20.0453 16.4213 20.3493 16.656 20.584C16.8907 20.8187 17.1893 20.936 17.552 20.936C17.8507 20.936 18.1387 20.824 18.416 20.6C18.6933 20.3653 18.9227 20.056 19.104 19.672C19.2853 19.288 19.376 18.856 19.376 18.376C20.0267 18.376 20.5707 18.408 21.008 18.472C21.456 18.5253 21.7973 18.648 22.032 18.84C22.2667 19.032 22.384 19.3307 22.384 19.736C22.384 20.1413 22.2667 20.5573 22.032 20.984C21.7973 21.4107 21.456 21.8107 21.008 22.184C20.5707 22.5467 20.0373 22.84 19.408 23.064C18.7893 23.288 18.096 23.4 17.328 23.4Z" fill="black"/>
<defs>
<clipPath id="clip0_1060_43">
<rect width="31" height="31" fill="white"/>
</clipPath>
</defs>
</svg>
